<svg width="165" height="104" viewBox="0 0 165 104" fill="none" xmlns="http://www.w3.org/2000/svg">
<path fill-rule="evenodd" clip-rule="evenodd" d="M16 8H149C153.418 8 157 11.5817 157 16V88C157 92.4183 153.418 96 149 96H16C11.5817 96 8 92.4183 8 88V16C8 11.5817 11.5817 8 16 8ZM0 16C0 7.16344 7.16344 0 16 0H149C157.837 0 165 7.16344 165 16V88C165 96.8366 157.837 104 149 104H16C7.16345 104 0 96.8366 0 88V16ZM93.781 71.976C96.8103 73.4693 100.437 74.216 104.661 74.216C109.098 74.216 112.917 73.384 116.117 71.72C119.317 70.056 121.834 67.8373 123.669 65.064C125.504 62.2907 126.634 59.24 127.061 55.912H117.909C117.397 59.0267 115.925 61.4587 113.493 63.208C111.104 64.9147 108.16 65.768 104.661 65.768C102.272 65.768 100.16 65.3627 98.325 64.552C96.533 63.7413 95.0183 62.6107 93.781 61.16C92.5437 59.6667 91.605 57.9387 90.965 55.976C90.3677 54.0133 90.069 51.88 90.069 49.576C90.069 47.1867 90.3677 45.0107 90.965 43.048C91.605 41.0853 92.5223 39.3787 93.717 37.928C94.9117 36.4773 96.405 35.368 98.197 34.6C99.989 33.7893 102.037 33.384 104.341 33.384C106.602 33.384 108.629 33.768 110.421 34.536C112.213 35.2613 113.685 36.3707 114.837 37.864C116.032 39.3147 116.8 41.1067 117.141 43.24H126.293C125.909 39.5707 124.778 36.3707 122.901 33.64C121.024 30.8667 118.506 28.7333 115.349 27.24C112.234 25.704 108.565 24.936 104.341 24.936C100.288 24.936 96.7677 25.64 93.781 27.048C90.837 28.4133 88.405 30.248 86.485 32.552C84.565 34.856 83.1357 37.416 82.197 40.232C81.301 43.048 80.853 45.9067 80.853 48.808V50.216C80.853 52.8187 81.301 55.528 82.197 58.344C83.093 61.16 84.4797 63.7627 86.357 66.152C88.277 68.5413 90.7517 70.4827 93.781 71.976ZM51.848 58.664V73H42.76V25.96H50.568H51.848H58.888C62.8133 25.96 66.1413 26.6 68.872 27.88C71.6453 29.16 73.7573 30.9947 75.208 33.384C76.6587 35.7307 77.384 38.5253 77.384 41.768V42.792C77.384 46.0347 76.6587 48.8507 75.208 51.24C73.7573 53.5867 71.6453 55.4213 68.872 56.744C66.1413 58.024 62.8133 58.664 58.888 58.664H51.848ZM51.848 50.792H59.656C61.4907 50.792 63.0267 50.4293 64.264 49.704C65.544 48.9787 66.504 47.976 67.144 46.696C67.8267 45.416 68.168 43.944 68.168 42.28C68.168 40.616 67.8267 39.144 67.144 37.864C66.504 36.584 65.544 35.6027 64.264 34.92C63.0267 34.1947 61.4907 33.832 59.656 33.832H51.848V50.792Z" fill="url(#paint0_linear_106_38)"/>
<defs>
<linearGradient id="paint0_linear_106_38" x1="0" y1="0" x2="165" y2="104" gradientUnits="userSpaceOnUse">
<stop stop-color="#4D4AFF"/>
<stop offset="1" stop-color="#4FBAD1"/>
</linearGradient>
</defs>
</svg>
