<svg width="64" height="40" viewBox="0 0 64 40" fill="none" xmlns="http://www.w3.org/2000/svg">
<path fill-rule="evenodd" clip-rule="evenodd" d="M13.6523 31.0492V33.4615H12.1231V25.5461H14.8369C15.4974 25.5461 16.0574 25.6538 16.5169 25.8692C16.9836 26.0846 17.339 26.3933 17.5831 26.7954C17.8272 27.1903 17.9492 27.6605 17.9492 28.2061V28.3785C17.9492 28.9241 17.8272 29.3979 17.5831 29.8C17.339 30.1949 16.9836 30.5036 16.5169 30.7261C16.0574 30.9415 15.4974 31.0492 14.8369 31.0492H13.6523ZM13.6523 29.7246H14.9662C15.2749 29.7246 15.5333 29.6636 15.7415 29.5415C15.9569 29.4195 16.1185 29.2508 16.2262 29.0354C16.341 28.82 16.3985 28.5723 16.3985 28.2923C16.3985 28.0123 16.341 27.7646 16.2262 27.5492C16.1185 27.3338 15.9569 27.1687 15.7415 27.0538C15.5333 26.9318 15.2749 26.8708 14.9662 26.8708H13.6523V29.7246Z" fill="url(#paint0_linear_104_30)"/>
<path fill-rule="evenodd" clip-rule="evenodd" d="M22.347 32.3354V33.4615H23.5317V29.8323C23.5317 29.2867 23.4276 28.8451 23.2193 28.5077C23.0183 28.1703 22.7168 27.9226 22.3147 27.7646C21.9199 27.6067 21.4209 27.5277 20.8178 27.5277C20.624 27.5277 20.4158 27.5313 20.1932 27.5385C19.9778 27.5385 19.766 27.5456 19.5578 27.56C19.3496 27.5744 19.1629 27.5887 18.9978 27.6031V28.8738C19.1988 28.8595 19.425 28.8487 19.6763 28.8415C19.9347 28.8272 20.1896 28.8164 20.4409 28.8092C20.6922 28.802 20.9076 28.7985 21.087 28.7985C21.4317 28.7985 21.6865 28.881 21.8517 29.0461C22.0168 29.2113 22.0993 29.4626 22.0993 29.8V29.8538H20.904C20.387 29.8538 19.9347 29.922 19.547 30.0585C19.1665 30.1949 18.8686 30.3995 18.6532 30.6723C18.445 30.9451 18.3409 31.2969 18.3409 31.7277C18.3409 32.1226 18.427 32.46 18.5993 32.74C18.7788 33.02 19.0265 33.2354 19.3424 33.3861C19.6655 33.5369 20.0388 33.6123 20.4624 33.6123C20.8717 33.6123 21.2163 33.5405 21.4963 33.3969C21.7835 33.2461 22.006 33.0308 22.164 32.7508C22.238 32.6253 22.299 32.4868 22.347 32.3354ZM22.0993 31.2969V30.7477H20.8824C20.5378 30.7477 20.2722 30.8338 20.0855 31.0061C19.906 31.1713 19.8163 31.3867 19.8163 31.6523C19.8163 31.9179 19.906 32.1333 20.0855 32.2985C20.2722 32.4636 20.5378 32.5461 20.8824 32.5461C21.0906 32.5461 21.2809 32.5103 21.4532 32.4385C21.6327 32.3595 21.7799 32.2303 21.8947 32.0508C22.0168 31.8641 22.085 31.6128 22.0993 31.2969Z" fill="url(#paint1_linear_104_30)"/>
<path d="M27.0412 33.6446C26.2371 33.6446 25.6053 33.4759 25.1459 33.1385C24.6936 32.7938 24.4566 32.32 24.4351 31.7169H25.7812C25.8028 31.9179 25.9141 32.101 26.1151 32.2661C26.3161 32.4313 26.632 32.5138 27.0628 32.5138C27.4218 32.5138 27.7053 32.4492 27.9136 32.32C28.1289 32.1908 28.2366 32.0149 28.2366 31.7923C28.2366 31.5985 28.1541 31.4441 27.9889 31.3292C27.831 31.2144 27.5582 31.139 27.1705 31.1031L26.6536 31.0492C26.0002 30.9774 25.4977 30.7908 25.1459 30.4892C24.7941 30.1877 24.6182 29.7856 24.6182 29.2831C24.6182 28.881 24.7187 28.5436 24.9197 28.2708C25.1207 27.9979 25.3971 27.7933 25.7489 27.6569C26.1079 27.5133 26.5171 27.4415 26.9766 27.4415C27.6946 27.4415 28.2761 27.5995 28.7212 27.9154C29.1664 28.2313 29.3997 28.6944 29.4212 29.3046H28.0751C28.0607 29.1036 27.9602 28.9313 27.7736 28.7877C27.5869 28.6441 27.3177 28.5723 26.9659 28.5723C26.65 28.5723 26.4059 28.6333 26.2336 28.7554C26.0612 28.8774 25.9751 29.0354 25.9751 29.2292C25.9751 29.4159 26.0433 29.5595 26.1797 29.66C26.3233 29.7605 26.553 29.8287 26.8689 29.8646L27.3859 29.9185C28.0751 29.9902 28.6136 30.1805 29.0012 30.4892C29.3961 30.7979 29.5936 31.2144 29.5936 31.7385C29.5936 32.1261 29.4859 32.4636 29.2705 32.7508C29.0623 33.0308 28.7679 33.2497 28.3874 33.4077C28.0069 33.5656 27.5582 33.6446 27.0412 33.6446Z" fill="url(#paint2_linear_104_30)"/>
<path d="M30.8409 33.1385C31.3004 33.4759 31.9322 33.6446 32.7363 33.6446C33.2532 33.6446 33.702 33.5656 34.0825 33.4077C34.463 33.2497 34.7573 33.0308 34.9656 32.7508C35.1809 32.4636 35.2886 32.1261 35.2886 31.7385C35.2886 31.2144 35.0912 30.7979 34.6963 30.4892C34.3086 30.1805 33.7702 29.9902 33.0809 29.9185L32.564 29.8646C32.2481 29.8287 32.0184 29.7605 31.8748 29.66C31.7384 29.5595 31.6702 29.4159 31.6702 29.2292C31.6702 29.0354 31.7563 28.8774 31.9286 28.7554C32.1009 28.6333 32.345 28.5723 32.6609 28.5723C33.0127 28.5723 33.282 28.6441 33.4686 28.7877C33.6553 28.9313 33.7558 29.1036 33.7702 29.3046H35.1163C35.0948 28.6944 34.8614 28.2313 34.4163 27.9154C33.9712 27.5995 33.3897 27.4415 32.6717 27.4415C32.2122 27.4415 31.803 27.5133 31.444 27.6569C31.0922 27.7933 30.8158 27.9979 30.6148 28.2708C30.4138 28.5436 30.3132 28.881 30.3132 29.2831C30.3132 29.7856 30.4891 30.1877 30.8409 30.4892C31.1927 30.7908 31.6953 30.9774 32.3486 31.0492L32.8655 31.1031C33.2532 31.139 33.5261 31.2144 33.684 31.3292C33.8491 31.4441 33.9317 31.5985 33.9317 31.7923C33.9317 32.0149 33.824 32.1908 33.6086 32.32C33.4004 32.4492 33.1168 32.5138 32.7579 32.5138C32.3271 32.5138 32.0112 32.4313 31.8102 32.2661C31.6091 32.101 31.4979 31.9179 31.4763 31.7169H30.1302C30.1517 32.32 30.3886 32.7938 30.8409 33.1385Z" fill="url(#paint3_linear_104_30)"/>
<path d="M38.9052 33.6661C38.3955 33.6661 37.954 33.58 37.5806 33.4077C37.2145 33.2354 36.9058 33.0056 36.6545 32.7185C36.4104 32.4313 36.2273 32.1082 36.1052 31.7492C35.9832 31.3902 35.9222 31.0241 35.9222 30.6508V30.4461C35.9222 30.0513 35.9832 29.6744 36.1052 29.3154C36.2345 28.9492 36.4247 28.6261 36.676 28.3461C36.9273 28.059 37.236 27.8328 37.6022 27.6677C37.9755 27.4954 38.4063 27.4092 38.8945 27.4092C39.4042 27.4092 39.8601 27.5097 40.2622 27.7108C40.6642 27.9046 40.9837 28.1774 41.2206 28.5292C41.4647 28.881 41.6011 29.2902 41.6299 29.7569H40.176C40.1401 29.4554 40.0109 29.2041 39.7883 29.0031C39.5729 28.802 39.275 28.7015 38.8945 28.7015C38.5642 28.7015 38.2878 28.7805 38.0652 28.9385C37.8499 29.0964 37.6883 29.3154 37.5806 29.5954C37.4729 29.8682 37.4191 30.1841 37.4191 30.5431C37.4191 30.8877 37.4693 31.2 37.5699 31.48C37.6775 31.76 37.8391 31.979 38.0545 32.1369C38.277 32.2949 38.5606 32.3738 38.9052 32.3738C39.1637 32.3738 39.3863 32.3272 39.5729 32.2338C39.7596 32.1405 39.9068 32.0113 40.0145 31.8461C40.1293 31.681 40.2011 31.4944 40.2299 31.2861H41.6837C41.655 31.76 41.515 32.1764 41.2637 32.5354C41.0196 32.8872 40.6929 33.1636 40.2837 33.3646C39.8816 33.5656 39.4222 33.6661 38.9052 33.6661Z" fill="url(#paint4_linear_104_30)"/>
<path fill-rule="evenodd" clip-rule="evenodd" d="M46.2106 32.3354V33.4615H47.3952V29.8323C47.3952 29.2867 47.2911 28.8451 47.0829 28.5077C46.8818 28.1703 46.5803 27.9226 46.1783 27.7646C45.7834 27.6067 45.2844 27.5277 44.6813 27.5277C44.4875 27.5277 44.2793 27.5313 44.0567 27.5385C43.8413 27.5385 43.6295 27.5456 43.4213 27.56C43.2131 27.5744 43.0265 27.5887 42.8613 27.6031V28.8738C43.0624 28.8595 43.2885 28.8487 43.5398 28.8415C43.7983 28.8272 44.0531 28.8164 44.3044 28.8092C44.5557 28.802 44.7711 28.7985 44.9506 28.7985C45.2952 28.7985 45.55 28.881 45.7152 29.0461C45.8803 29.2113 45.9629 29.4626 45.9629 29.8V29.8538H44.7675C44.2506 29.8538 43.7983 29.922 43.4106 30.0585C43.03 30.1949 42.7321 30.3995 42.5167 30.6723C42.3085 30.9451 42.2044 31.2969 42.2044 31.7277C42.2044 32.1226 42.2906 32.46 42.4629 32.74C42.6424 33.02 42.89 33.2354 43.2059 33.3861C43.529 33.5369 43.9024 33.6123 44.3259 33.6123C44.7352 33.6123 45.0798 33.5405 45.3598 33.3969C45.647 33.2461 45.8695 33.0308 46.0275 32.7508C46.1015 32.6253 46.1625 32.4868 46.2106 32.3354ZM45.9629 31.2969V30.7477H44.7459C44.4013 30.7477 44.1357 30.8338 43.949 31.0061C43.7695 31.1713 43.6798 31.3867 43.6798 31.6523C43.6798 31.9179 43.7695 32.1333 43.949 32.2985C44.1357 32.4636 44.4013 32.5461 44.7459 32.5461C44.9542 32.5461 45.1444 32.5103 45.3167 32.4385C45.4962 32.3595 45.6434 32.2303 45.7583 32.0508C45.8803 31.8641 45.9485 31.6128 45.9629 31.2969Z" fill="url(#paint5_linear_104_30)"/>
<path d="M48.7832 33.4615V27.6138H49.9678V29.5103C50.0342 28.9518 50.203 28.5099 50.474 28.1846C50.833 27.7538 51.3607 27.5385 52.0571 27.5385H52.2725V28.8415H51.8632C51.3607 28.8415 50.9694 28.9779 50.6894 29.2508C50.4166 29.5164 50.2802 29.9041 50.2802 30.4138V33.4615H48.7832Z" fill="url(#paint6_linear_104_30)"/>
<path fill-rule="evenodd" clip-rule="evenodd" d="M54.3088 33.4292C54.6534 33.58 55.0303 33.6554 55.4395 33.6554C55.899 33.6554 56.3083 33.5585 56.6672 33.3646C57.0334 33.1636 57.3277 32.8656 57.5503 32.4708C57.5893 32.4003 57.6252 32.327 57.658 32.2506V33.4615H58.8426V25.6H57.3457V28.447C57.1502 28.1358 56.9025 27.8975 56.6026 27.7323C56.258 27.5313 55.8559 27.4308 55.3965 27.4308C54.9801 27.4308 54.5995 27.5097 54.2549 27.6677C53.9175 27.8185 53.6267 28.0302 53.3826 28.3031C53.1457 28.5759 52.959 28.8954 52.8226 29.2615C52.6934 29.6277 52.6288 30.019 52.6288 30.4354V30.6615C52.6288 31.0851 52.697 31.48 52.8334 31.8461C52.9698 32.2051 53.1636 32.521 53.4149 32.7938C53.6662 33.0667 53.9642 33.2785 54.3088 33.4292ZM56.5811 32.2015C56.337 32.3308 56.0677 32.3954 55.7734 32.3954C55.4575 32.3954 55.1739 32.32 54.9226 32.1692C54.6785 32.0185 54.4847 31.8067 54.3411 31.5338C54.1975 31.2538 54.1257 30.9272 54.1257 30.5538C54.1257 30.1805 54.1939 29.8538 54.3303 29.5738C54.4739 29.2938 54.6677 29.0785 54.9119 28.9277C55.1631 28.7697 55.4503 28.6908 55.7734 28.6908C56.0606 28.6908 56.3262 28.7554 56.5703 28.8846C56.8144 29.0067 57.0118 29.1861 57.1626 29.4231C57.3134 29.6528 57.3888 29.94 57.3888 30.2846V30.7154C57.3888 31.06 57.3134 31.3615 57.1626 31.62C57.019 31.8713 56.8252 32.0651 56.5811 32.2015Z" fill="url(#paint7_linear_104_30)"/>
<path fill-rule="evenodd" clip-rule="evenodd" d="M0 6.15385C0 2.75517 2.75517 0 6.15385 0H57.3077C60.7064 0 63.4615 2.75517 63.4615 6.15385V33.8462C63.4615 37.2448 60.7064 40 57.3077 40H6.15385C2.75517 40 0 37.2448 0 33.8462V6.15385ZM6.15385 1.53846H57.3077C59.8567 1.53846 61.9231 3.60484 61.9231 6.15385V33.8462C61.9231 36.3952 59.8567 38.4615 57.3077 38.4615H6.15385C3.60484 38.4615 1.53846 36.3952 1.53846 33.8462V6.15385C1.53846 3.60484 3.60484 1.53846 6.15385 1.53846Z" fill="url(#paint8_linear_104_30)"/>
<defs>
<linearGradient id="paint0_linear_104_30" x1="0" y1="0" x2="63.4615" y2="40" gradientUnits="userSpaceOnUse">
<stop stop-color="#4D4AFF"/>
<stop offset="1" stop-color="#4FBAD1"/>
</linearGradient>
<linearGradient id="paint1_linear_104_30" x1="0" y1="0" x2="63.4615" y2="40" gradientUnits="userSpaceOnUse">
<stop stop-color="#4D4AFF"/>
<stop offset="1" stop-color="#4FBAD1"/>
</linearGradient>
<linearGradient id="paint2_linear_104_30" x1="0" y1="0" x2="63.4615" y2="40" gradientUnits="userSpaceOnUse">
<stop stop-color="#4D4AFF"/>
<stop offset="1" stop-color="#4FBAD1"/>
</linearGradient>
<linearGradient id="paint3_linear_104_30" x1="0" y1="0" x2="63.4615" y2="40" gradientUnits="userSpaceOnUse">
<stop stop-color="#4D4AFF"/>
<stop offset="1" stop-color="#4FBAD1"/>
</linearGradient>
<linearGradient id="paint4_linear_104_30" x1="0" y1="0" x2="63.4615" y2="40" gradientUnits="userSpaceOnUse">
<stop stop-color="#4D4AFF"/>
<stop offset="1" stop-color="#4FBAD1"/>
</linearGradient>
<linearGradient id="paint5_linear_104_30" x1="0" y1="0" x2="63.4615" y2="40" gradientUnits="userSpaceOnUse">
<stop stop-color="#4D4AFF"/>
<stop offset="1" stop-color="#4FBAD1"/>
</linearGradient>
<linearGradient id="paint6_linear_104_30" x1="0" y1="0" x2="63.4615" y2="40" gradientUnits="userSpaceOnUse">
<stop stop-color="#4D4AFF"/>
<stop offset="1" stop-color="#4FBAD1"/>
</linearGradient>
<linearGradient id="paint7_linear_104_30" x1="0" y1="0" x2="63.4615" y2="40" gradientUnits="userSpaceOnUse">
<stop stop-color="#4D4AFF"/>
<stop offset="1" stop-color="#4FBAD1"/>
</linearGradient>
<linearGradient id="paint8_linear_104_30" x1="0" y1="0" x2="63.4615" y2="40" gradientUnits="userSpaceOnUse">
<stop stop-color="#4D4AFF"/>
<stop offset="1" stop-color="#4FBAD1"/>
</linearGradient>
</defs>
</svg>
